<svg xmlns="http://www.w3.org/2000/svg" xmlns:xlink="http://www.w3.org/1999/xlink" width="1920" zoomAndPan="magnify" viewBox="0 0 1440 1439.999935" height="1920" preserveAspectRatio="xMidYMid meet" version="1.0"><defs><clipPath id="0e82b502a8"><path d="M 181.769531 181.769531 L 1258.019531 181.769531 L 1258.019531 1258.019531 L 181.769531 1258.019531 Z M 181.769531 181.769531 " clip-rule="nonzero"/></clipPath></defs><path fill="#fff0b5" d="M 1241.917969 720 C 1241.917969 728.539062 1241.710938 737.078125 1241.289062 745.609375 C 1240.871094 754.140625 1240.242188 762.65625 1239.40625 771.15625 C 1238.570312 779.65625 1237.523438 788.132812 1236.269531 796.582031 C 1235.015625 805.03125 1233.558594 813.441406 1231.890625 821.820312 C 1230.222656 830.199219 1228.355469 838.53125 1226.277344 846.816406 C 1224.203125 855.101562 1221.925781 863.332031 1219.445312 871.503906 C 1216.964844 879.679688 1214.289062 887.785156 1211.410156 895.828125 C 1208.53125 903.871094 1205.460938 911.839844 1202.191406 919.730469 C 1198.921875 927.621094 1195.460938 935.425781 1191.808594 943.148438 C 1188.15625 950.871094 1184.316406 958.496094 1180.292969 966.03125 C 1176.265625 973.5625 1172.054688 980.992188 1167.664062 988.320312 C 1163.273438 995.644531 1158.707031 1002.859375 1153.960938 1009.960938 C 1149.214844 1017.066406 1144.296875 1024.046875 1139.210938 1030.90625 C 1134.121094 1037.765625 1128.867188 1044.5 1123.449219 1051.101562 C 1118.03125 1057.703125 1112.453125 1064.171875 1106.714844 1070.5 C 1100.980469 1076.828125 1095.09375 1083.011719 1089.050781 1089.050781 C 1083.011719 1095.09375 1076.828125 1100.980469 1070.5 1106.714844 C 1064.171875 1112.453125 1057.703125 1118.03125 1051.101562 1123.449219 C 1044.5 1128.867188 1037.765625 1134.121094 1030.90625 1139.210938 C 1024.046875 1144.296875 1017.066406 1149.214844 1009.960938 1153.960938 C 1002.859375 1158.707031 995.644531 1163.273438 988.320312 1167.664062 C 980.992188 1172.054688 973.5625 1176.265625 966.03125 1180.292969 C 958.496094 1184.316406 950.871094 1188.15625 943.148438 1191.808594 C 935.425781 1195.460938 927.621094 1198.921875 919.730469 1202.191406 C 911.839844 1205.460938 903.871094 1208.53125 895.828125 1211.410156 C 887.785156 1214.289062 879.679688 1216.964844 871.503906 1219.445312 C 863.332031 1221.925781 855.101562 1224.203125 846.816406 1226.277344 C 838.53125 1228.355469 830.199219 1230.222656 821.820312 1231.890625 C 813.441406 1233.558594 805.03125 1235.015625 796.582031 1236.269531 C 788.132812 1237.523438 779.65625 1238.570312 771.15625 1239.40625 C 762.65625 1240.242188 754.140625 1240.871094 745.609375 1241.289062 C 737.078125 1241.710938 728.539062 1241.917969 720 1241.917969 C 711.457031 1241.917969 702.921875 1241.710938 694.390625 1241.289062 C 685.859375 1240.871094 677.34375 1240.242188 668.84375 1239.40625 C 660.339844 1238.570312 651.867188 1237.523438 643.417969 1236.269531 C 634.96875 1235.015625 626.554688 1233.558594 618.175781 1231.890625 C 609.800781 1230.222656 601.46875 1228.355469 593.183594 1226.277344 C 584.898438 1224.203125 576.667969 1221.925781 568.492188 1219.445312 C 560.320312 1216.964844 552.210938 1214.289062 544.167969 1211.410156 C 536.128906 1208.53125 528.160156 1205.460938 520.269531 1202.191406 C 512.378906 1198.921875 504.570312 1195.460938 496.847656 1191.808594 C 489.128906 1188.15625 481.5 1184.316406 473.96875 1180.292969 C 466.433594 1176.265625 459.003906 1172.054688 451.679688 1167.664062 C 444.351562 1163.273438 437.136719 1158.707031 430.035156 1153.960938 C 422.933594 1149.214844 415.953125 1144.296875 409.089844 1139.210938 C 402.230469 1134.121094 395.5 1128.867188 388.894531 1123.449219 C 382.292969 1118.03125 375.828125 1112.453125 369.5 1106.714844 C 363.171875 1100.980469 356.984375 1095.09375 350.945312 1089.050781 C 344.90625 1083.011719 339.019531 1076.828125 333.28125 1070.5 C 327.546875 1064.171875 321.96875 1057.703125 316.550781 1051.101562 C 311.128906 1044.5 305.878906 1037.765625 300.789062 1030.90625 C 295.699219 1024.046875 290.785156 1017.066406 286.039062 1009.960938 C 281.292969 1002.859375 276.722656 995.644531 272.332031 988.320312 C 267.941406 980.992188 263.734375 973.5625 259.707031 966.03125 C 255.679688 958.496094 251.839844 950.871094 248.1875 943.148438 C 244.535156 935.425781 241.078125 927.621094 237.808594 919.730469 C 234.539062 911.839844 231.464844 903.871094 228.589844 895.828125 C 225.710938 887.785156 223.03125 879.679688 220.550781 871.503906 C 218.074219 863.332031 215.796875 855.101562 213.71875 846.816406 C 211.644531 838.53125 209.773438 830.199219 208.105469 821.820312 C 206.441406 813.441406 204.980469 805.03125 203.726562 796.582031 C 202.472656 788.132812 201.429688 779.65625 200.59375 771.15625 C 199.753906 762.65625 199.125 754.140625 198.707031 745.609375 C 198.289062 737.078125 198.078125 728.539062 198.078125 720 C 198.078125 711.457031 198.289062 702.921875 198.707031 694.390625 C 199.125 685.859375 199.753906 677.34375 200.59375 668.84375 C 201.429688 660.339844 202.472656 651.867188 203.726562 643.417969 C 204.980469 634.96875 206.441406 626.554688 208.105469 618.175781 C 209.773438 609.800781 211.644531 601.46875 213.71875 593.183594 C 215.796875 584.898438 218.074219 576.667969 220.550781 568.492188 C 223.03125 560.320312 225.710938 552.210938 228.589844 544.167969 C 231.464844 536.128906 234.539062 528.160156 237.808594 520.269531 C 241.078125 512.378906 244.535156 504.570312 248.1875 496.847656 C 251.839844 489.128906 255.679688 481.5 259.707031 473.96875 C 263.734375 466.433594 267.941406 459.003906 272.332031 451.679688 C 276.722656 444.351562 281.292969 437.136719 286.039062 430.035156 C 290.785156 422.933594 295.699219 415.953125 300.789062 409.089844 C 305.878906 402.230469 311.128906 395.5 316.550781 388.894531 C 321.96875 382.292969 327.546875 375.828125 333.28125 369.5 C 339.019531 363.167969 344.90625 356.984375 350.945312 350.945312 C 356.984375 344.90625 363.171875 339.019531 369.5 333.28125 C 375.828125 327.546875 382.292969 321.96875 388.894531 316.550781 C 395.5 311.128906 402.230469 305.878906 409.089844 300.789062 C 415.953125 295.699219 422.933594 290.785156 430.035156 286.039062 C 437.136719 281.292969 444.351562 276.722656 451.679688 272.332031 C 459.003906 267.941406 466.433594 263.734375 473.96875 259.707031 C 481.5 255.679688 489.128906 251.839844 496.847656 248.1875 C 504.570312 244.535156 512.378906 241.078125 520.269531 237.808594 C 528.160156 234.539062 536.128906 231.464844 544.167969 228.589844 C 552.210938 225.710938 560.320312 223.03125 568.492188 220.550781 C 576.667969 218.074219 584.898438 215.796875 593.183594 213.71875 C 601.46875 211.644531 609.800781 209.773438 618.175781 208.105469 C 626.554688 206.441406 634.96875 204.980469 643.417969 203.726562 C 651.867188 202.472656 660.339844 201.429688 668.84375 200.59375 C 677.34375 199.753906 685.859375 199.125 694.390625 198.707031 C 702.921875 198.289062 711.457031 198.078125 720 198.078125 C 728.539062 198.078125 737.078125 198.289062 745.609375 198.707031 C 754.140625 199.125 762.65625 199.753906 771.15625 200.59375 C 779.65625 201.429688 788.132812 202.472656 796.582031 203.726562 C 805.03125 204.980469 813.441406 206.441406 821.820312 208.105469 C 830.199219 209.773438 838.53125 211.644531 846.816406 213.71875 C 855.101562 215.796875 863.332031 218.074219 871.503906 220.550781 C 879.679688 223.03125 887.785156 225.710938 895.828125 228.589844 C 903.871094 231.464844 911.839844 234.539062 919.730469 237.808594 C 927.621094 241.078125 935.425781 244.535156 943.148438 248.1875 C 950.871094 251.839844 958.496094 255.679688 966.03125 259.707031 C 973.5625 263.734375 980.992188 267.941406 988.320312 272.332031 C 995.644531 276.722656 1002.859375 281.292969 1009.960938 286.039062 C 1017.066406 290.785156 1024.046875 295.699219 1030.90625 300.789062 C 1037.765625 305.878906 1044.5 311.128906 1051.101562 316.550781 C 1057.703125 321.96875 1064.171875 327.546875 1070.5 333.28125 C 1076.828125 339.019531 1083.011719 344.90625 1089.050781 350.945312 C 1095.09375 356.984375 1100.980469 363.167969 1106.714844 369.5 C 1112.453125 375.828125 1118.03125 382.292969 1123.449219 388.894531 C 1128.867188 395.5 1134.121094 402.230469 1139.210938 409.089844 C 1144.296875 415.953125 1149.214844 422.933594 1153.960938 430.035156 C 1158.707031 437.136719 1163.273438 444.351562 1167.664062 451.679688 C 1172.054688 459.003906 1176.265625 466.433594 1180.292969 473.96875 C 1184.316406 481.5 1188.15625 489.128906 1191.808594 496.847656 C 1195.460938 504.570312 1198.921875 512.378906 1202.191406 520.269531 C 1205.460938 528.160156 1208.53125 536.128906 1211.410156 544.167969 C 1214.289062 552.210938 1216.964844 560.320312 1219.445312 568.492188 C 1221.925781 576.667969 1224.203125 584.898438 1226.277344 593.183594 C 1228.355469 601.46875 1230.222656 609.800781 1231.890625 618.175781 C 1233.558594 626.554688 1235.015625 634.96875 1236.269531 643.417969 C 1237.523438 651.867188 1238.570312 660.339844 1239.40625 668.84375 C 1240.242188 677.34375 1240.871094 685.859375 1241.289062 694.390625 C 1241.710938 702.921875 1241.917969 711.457031 1241.917969 720 Z M 1241.917969 720 " fill-opacity="1" fill-rule="nonzero"/><g clip-path="url(#0e82b502a8)"><path fill="#fff0b5" d="M 720 1258.230469 C 423.210938 1258.230469 181.769531 1016.765625 181.769531 720 C 181.769531 423.210938 423.210938 181.769531 720 181.769531 C 1016.765625 181.769531 1258.230469 423.210938 1258.230469 720 C 1258.230469 1016.765625 1016.765625 1258.230469 720 1258.230469 Z M 720 214.390625 C 441.195312 214.390625 214.390625 441.195312 214.390625 720 C 214.390625 998.800781 441.195312 1225.609375 720 1225.609375 C 998.800781 1225.609375 1225.609375 998.800781 1225.609375 720 C 1225.609375 441.195312 998.800781 214.390625 720 214.390625 Z M 720 214.390625 " fill-opacity="1" fill-rule="nonzero"/></g><path fill="#0a1a1f" d="M 676.765625 923.558594 L 875.585938 717.128906 L 676.386719 516.4375 L 630.042969 562.445312 L 784.347656 717.855469 L 629.695312 878.324219 Z M 676.765625 923.558594 " fill-opacity="1" fill-rule="nonzero"/></svg>